<svg width="248" height="229" viewBox="0 0 248 229" fill="none" xmlns="http://www.w3.org/2000/svg">
<path d="M133.344 215.322C190.262 215.322 236.405 169.318 236.405 112.372C236.405 55.4265 190.058 9.42383 133.344 9.42383C76.4255 9.42383 30.2812 55.4265 30.2812 112.372C30.2812 169.318 76.4255 215.322 133.344 215.322Z" fill="#F5F8FE" stroke="#BBC4D9" stroke-width="2" stroke-miterlimit="10"/>
<path d="M229.698 44.8892C234.302 44.8892 238.032 41.169 238.032 36.5803C238.032 31.9914 234.302 28.2715 229.698 28.2715C225.095 28.2715 221.363 31.9914 221.363 36.5803C221.363 41.169 225.095 44.8892 229.698 44.8892Z" fill="#EEF1FF"/>
<path d="M241.895 12.4639C245.04 12.4639 247.587 9.92341 247.587 6.78958C247.587 3.65572 245.04 1.11523 241.895 1.11523C238.752 1.11523 236.203 3.65572 236.203 6.78958C236.203 9.92341 238.752 12.4639 241.895 12.4639Z" fill="#EEF1FF"/>
<path d="M35.7699 44.6866C38.9134 44.6866 41.4617 42.1461 41.4617 39.0122C41.4617 35.8784 38.9134 33.3379 35.7699 33.3379C32.6264 33.3379 30.0781 35.8784 30.0781 39.0122C30.0781 42.1461 32.6264 44.6866 35.7699 44.6866Z" fill="#EEF1FF"/>
<path d="M11.8205 167.35C17.6584 167.35 22.391 162.632 22.391 156.812C22.391 150.992 17.6584 146.273 11.8205 146.273C5.98257 146.273 1.25 150.992 1.25 156.812C1.25 162.632 5.98257 167.35 11.8205 167.35Z" fill="#EEF1FF"/>
<path d="M215.596 179.546H51.0913C43.5279 179.546 37.3828 173.419 37.3828 165.879V60.7877C37.3828 53.2476 43.5279 47.1211 51.0913 47.1211H215.596C223.16 47.1211 229.305 53.2476 229.305 60.7877V166.35C228.831 173.419 222.686 179.546 215.596 179.546Z" fill="white" stroke="#BBC4D9" stroke-width="2" stroke-miterlimit="10"/>
<path d="M97.1706 51.9648H65.9727V62.4074H97.1706V51.9648Z" fill="#F5F8FE" stroke="#BBC4D9" stroke-width="2" stroke-miterlimit="10"/>
<path d="M198.928 51.9648H168.445V62.4074H198.928V51.9648Z" fill="#F5F8FE" stroke="#BBC4D9" stroke-width="2" stroke-miterlimit="10"/>
<path d="M91.7446 28.2715H71.418V56.7755H91.7446V28.2715Z" fill="white" stroke="#BBC4D9" stroke-width="2" stroke-miterlimit="10"/>
<path d="M193.858 28.2715H173.531V56.7755H193.858V28.2715Z" fill="white" stroke="#BBC4D9" stroke-width="2" stroke-miterlimit="10"/>
<path d="M96.9432 119.224C105.559 119.224 112.543 112.262 112.543 103.673C112.543 95.0839 105.559 88.1211 96.9432 88.1211C88.3278 88.1211 81.3438 95.0839 81.3438 103.673C81.3438 112.262 88.3278 119.224 96.9432 119.224Z" stroke="#BBC4D9" stroke-width="4" stroke-miterlimit="10" stroke-linecap="round" stroke-linejoin="round"/>
<path d="M71.8906 144.68C71.8906 131.013 83.2356 119.703 96.9443 119.703C110.653 119.703 121.998 131.013 121.998 144.68" stroke="#BBC4D9" stroke-width="4" stroke-miterlimit="10" stroke-linecap="round" stroke-linejoin="round"/>
<path d="M147.996 100.846H198.576" stroke="#BBC4D9" stroke-width="4" stroke-miterlimit="10" stroke-linecap="round" stroke-linejoin="round"/>
<path d="M147.996 126.293H167.85" stroke="#BBC4D9" stroke-width="4" stroke-miterlimit="10" stroke-linecap="round" stroke-linejoin="round"/>
<path d="M164.709 199.409C164.053 202.186 163.07 205.127 161.923 207.579C158.809 213.624 153.892 218.362 147.827 221.467C141.599 224.572 134.224 225.879 126.848 224.245C109.475 220.65 98.3294 203.658 101.935 186.337C105.541 169.017 122.423 157.742 139.796 161.501C146.024 162.808 151.433 165.912 156.022 170.161C163.726 177.84 167.004 188.951 164.709 199.409Z" fill="#BBC4D9" stroke="#BBC4D9" stroke-width="2" stroke-miterlimit="10"/>
<path d="M142.533 188.351H137.938V183.77C137.938 181.409 136.075 179.248 133.402 179.248C131.033 179.248 128.865 181.106 128.865 183.77V188.351H124.271C121.902 188.351 119.734 190.209 119.734 192.874C119.734 194.093 120.171 195.249 121.029 196.105C121.888 196.961 123.048 197.396 124.271 197.396H128.865V201.976C128.865 204.337 130.729 206.5 133.402 206.5C135.771 206.5 137.938 204.641 137.938 201.976V197.396H142.533C144.902 197.396 147.069 195.538 147.069 192.874C147.069 190.209 144.902 188.351 142.533 188.351Z" fill="white" stroke="#BBC4D9" stroke-width="2"/>
</svg>
