<svg width="215" height="163" viewBox="0 0 215 163" fill="none" xmlns="http://www.w3.org/2000/svg">
<path d="M104.812 160.632C148.657 160.632 184.226 124.998 184.226 80.9365C184.226 36.8755 148.657 1.41602 104.812 1.41602C60.9673 1.41602 25.3984 37.0511 25.3984 81.112C25.3984 125.173 60.9673 160.632 104.812 160.632Z" fill="#F5F8FE" stroke="#BBC4D9" stroke-width="2" stroke-miterlimit="10"/>
<path d="M143.904 160.863C131.755 161.213 117.316 160.863 106.927 160.687C96.7139 161.037 82.0989 161.213 69.9492 160.863C81.9229 154.017 86.1489 141.377 86.6771 132.951H126.824C127.881 141.201 132.106 154.017 143.904 160.863Z" fill="#BBC4D9" stroke="#BBC4D9" stroke-width="2" stroke-miterlimit="10"/>
<path d="M182.818 26.7487V131.548C182.818 134.18 180.704 136.112 178.415 136.112H36.3162C33.851 136.112 31.9141 134.005 31.9141 131.548V26.7487C31.9141 24.2911 34.027 22.1846 36.3162 22.1846H178.24C180.88 22.1846 182.818 24.2911 182.818 26.7487Z" fill="white" stroke="#BBC4D9" stroke-width="2" stroke-miterlimit="10"/>
<path d="M182.818 26.7487V116.977H31.9141V26.7487C31.9141 24.2911 34.027 22.1846 36.3162 22.1846H178.24C180.88 22.1846 182.818 24.2911 182.818 26.7487Z" fill="white" stroke="#BBC4D9" stroke-width="2" stroke-miterlimit="10"/>
<path d="M107.1 129.86C109.213 129.86 110.798 128.279 110.798 126.173C110.798 124.066 109.213 122.486 107.1 122.486C104.987 122.486 103.402 124.066 103.402 126.173C103.402 128.279 104.987 129.86 107.1 129.86Z" fill="#BBC4D9"/>
<path d="M168.909 43.4251V54.1331C168.909 55.7131 167.675 56.9419 166.09 56.9419H47.7627C46.178 56.9419 44.9453 55.7131 44.9453 54.1331V43.4251C44.9453 41.8452 46.178 40.6164 47.7627 40.6164H165.915C167.675 40.4409 168.909 41.8452 168.909 43.4251Z" fill="#BBC4D9"/>
<path d="M61.4974 40.4414V57.1178H47.5868C46.0021 57.1178 44.7695 55.8891 44.7695 54.3091V43.601C44.7695 42.0212 46.0021 40.7924 47.5868 40.7924L61.4974 40.4414Z" fill="#EEF1FF"/>
<path opacity="0.8" d="M168.909 65.8938V76.6019C168.909 78.1818 167.675 79.4106 166.09 79.4106H47.7627C46.178 79.4106 44.9453 78.1818 44.9453 76.6019V65.8938C44.9453 64.314 46.178 63.0852 47.7627 63.0852H165.915C167.675 62.9096 168.909 64.314 168.909 65.8938Z" fill="#BBC4D9"/>
<path d="M61.4974 40.4414V57.1178H47.5868C46.0021 57.1178 44.7695 55.8891 44.7695 54.3091V43.601C44.7695 42.0212 46.0021 40.7924 47.5868 40.7924L61.4974 40.4414Z" fill="#BBC4D9"/>
<path d="M52.6914 52.3776C52.3391 52.3776 51.987 52.202 51.8109 52.0266L49.1696 49.3934C48.6414 48.8668 48.6414 48.1646 49.1696 47.638C49.698 47.1113 50.4022 47.1113 50.9306 47.638L52.5152 49.2178L56.3891 45.3559C56.9173 44.8293 57.6217 44.8293 58.1499 45.3559C58.6782 45.8825 58.6782 46.5847 58.1499 47.1113L53.3957 51.851C53.2196 52.202 52.8674 52.3776 52.6914 52.3776Z" fill="white"/>
<path opacity="0.5" d="M168.909 88.3635V99.0715C168.909 100.651 167.675 101.88 166.09 101.88H47.7627C46.178 101.88 44.9453 100.651 44.9453 99.0715V88.3635C44.9453 86.7836 46.178 85.5548 47.7627 85.5548H165.915C167.675 85.3792 168.909 86.608 168.909 88.3635Z" fill="#BBC4D9"/>
<path opacity="0.3" d="M168.909 110.568V115.648H44.7695V110.568C44.7695 108.989 46.0021 107.76 47.5868 107.76H165.916C167.676 107.76 168.909 108.989 168.909 110.568Z" fill="#BBC4D9"/>
<path d="M43.3598 155.069C43.3598 158.054 40.8946 160.511 37.9012 160.511H7.61484C4.62142 160.511 2.15625 158.054 2.15625 155.069V84.1509C2.15625 81.1667 4.62142 78.709 7.61484 78.709H37.7251C40.7185 78.709 43.1837 81.1667 43.1837 84.1509L43.3598 155.069Z" fill="white"/>
<path d="M37.9012 78.5332C40.8946 78.5332 43.3598 80.9908 43.3598 83.975V154.893C43.3598 157.879 40.8946 160.335 37.9012 160.335H7.61484C4.62142 160.335 2.15625 157.879 2.15625 154.893V84.1505C2.15625 81.1664 4.62142 78.7088 7.61484 78.7088L37.9012 78.5332Z" fill="#BBC4D9" stroke="#BBC4D9" stroke-width="2" stroke-miterlimit="10"/>
<path d="M40.7179 84.1507V155.069C40.7179 156.474 39.6614 157.879 38.0767 157.879H37.9006H7.61421H7.43813C6.02946 157.879 4.79688 156.649 4.79688 155.069V84.1507C4.79688 82.5709 6.02946 81.342 7.43813 81.342H11.8402C12.5445 81.342 12.8968 81.8687 12.8968 82.3954C12.8968 83.4486 13.7771 84.5018 15.0097 84.5018H30.329C31.3855 84.5018 32.4421 83.6241 32.4421 82.3954C32.4421 81.6932 32.9703 81.342 33.3224 81.342H37.5484C39.3093 81.1666 40.7179 82.5709 40.7179 84.1507Z" fill="white"/>
<path d="M25.3989 82.3956H21.3489C20.9968 82.3956 20.6445 82.0444 20.6445 81.6934C20.6445 81.3422 20.9968 80.9912 21.3489 80.9912H25.3989C25.751 80.9912 26.1032 81.3422 26.1032 81.6934C25.9271 82.0444 25.575 82.3956 25.3989 82.3956Z" fill="white"/>
<path d="M19.0604 82.3956H18.7081C18.356 82.3956 18.0039 82.0444 18.0039 81.6934C18.0039 81.3422 18.356 80.9912 18.7081 80.9912H19.0604C19.4125 80.9912 19.7647 81.3422 19.7647 81.6934C19.7647 82.0444 19.4125 82.3956 19.0604 82.3956Z" fill="white"/>
<path d="M36.491 107.674H9.02196C8.14154 107.674 7.61328 106.971 7.61328 106.269V92.4014C7.61328 91.5238 8.31762 90.9971 9.02196 90.9971H36.667C37.5475 90.9971 38.0757 91.6993 38.0757 92.4014V106.269C37.8996 106.971 37.3714 107.674 36.491 107.674Z" fill="#BBC4D9"/>
<path d="M21.7031 102.934C21.3508 102.934 20.9987 102.759 20.8226 102.583L18.1813 99.9501C17.6531 99.4234 17.6531 98.7213 18.1813 98.1947C18.7097 97.6679 19.4139 97.6679 19.9423 98.1947L21.527 99.7745L25.4008 95.9125C25.9291 95.3859 26.6334 95.3859 27.1616 95.9125C27.6899 96.4391 27.6899 97.1413 27.1616 97.6679L22.5834 102.232C22.2313 102.759 21.8791 102.934 21.7031 102.934Z" fill="white"/>
<path opacity="0.8" d="M36.491 128.388H9.02196C8.14154 128.388 7.61328 127.685 7.61328 126.983V113.115C7.61328 112.238 8.31762 111.711 9.02196 111.711H36.667C37.5475 111.711 38.0757 112.413 38.0757 113.115V126.983C37.8996 127.685 37.3714 128.388 36.491 128.388Z" fill="#BBC4D9"/>
<path opacity="0.5" d="M36.491 149.102H9.02196C8.14154 149.102 7.61328 148.4 7.61328 147.698V133.83C7.61328 132.952 8.31762 132.426 9.02196 132.426H36.667C37.5475 132.426 38.0757 133.128 38.0757 133.83V147.698C37.8996 148.576 37.3714 149.102 36.491 149.102Z" fill="#BBC4D9"/>
<path opacity="0.3" d="M37.9 154.895V157.703H37.7239H7.61358H7.4375V154.895C7.4375 154.017 8.14184 153.489 8.84617 153.489H36.4913C37.3718 153.489 37.9 154.191 37.9 154.895Z" fill="#BBC4D9"/>
<path d="M42.8308 34.4723C43.7113 34.4723 44.4156 33.7701 44.4156 32.8923C44.4156 32.0147 43.7113 31.3125 42.8308 31.3125C41.9504 31.3125 41.2461 32.0147 41.2461 32.8923C41.2461 33.7701 41.9504 34.4723 42.8308 34.4723Z" fill="#EEF1FF"/>
<path d="M47.9363 34.4723C48.8167 34.4723 49.5211 33.7701 49.5211 32.8923C49.5211 32.0147 48.8167 31.3125 47.9363 31.3125C47.0559 31.3125 46.3516 32.0147 46.3516 32.8923C46.3516 33.7701 47.0559 34.4723 47.9363 34.4723Z" fill="#EEF1FF"/>
<path d="M53.0458 34.4723C53.9261 34.4723 54.6305 33.7701 54.6305 32.8923C54.6305 32.0147 53.9261 31.3125 53.0458 31.3125C52.1653 31.3125 51.4609 32.0147 51.4609 32.8923C51.4609 33.7701 52.1653 34.4723 53.0458 34.4723Z" fill="#EEF1FF"/>
<path d="M212.071 132.5C211.366 135.484 210.309 138.644 209.077 141.277C205.731 147.772 200.449 152.863 193.935 156.198C187.243 159.533 179.32 160.938 171.396 159.182C152.731 155.32 140.756 137.064 144.63 118.457C148.504 99.8491 166.641 87.7367 185.306 91.7741C191.997 93.1784 197.809 96.5138 202.738 101.078C211.014 109.504 214.36 121.265 212.071 132.5Z" fill="#BBC4D9" stroke="#BBC4D9" stroke-width="2" stroke-miterlimit="10"/>
<path d="M189.182 121.211H182.545V114.595C182.545 112.356 180.785 110.327 178.264 110.327C176.019 110.327 173.984 112.082 173.984 114.595V121.211H167.347C165.102 121.211 163.066 122.965 163.066 125.478C163.066 126.664 163.487 127.747 164.279 128.537C165.072 129.326 166.159 129.746 167.347 129.746H173.984V136.362C173.984 138.6 175.744 140.629 178.264 140.629C180.51 140.629 182.545 138.875 182.545 136.362V129.746H189.182C191.408 129.746 193.428 128.021 193.463 125.542C193.69 122.896 191.5 121.211 189.182 121.211Z" fill="white" stroke="#BBC4D9" stroke-width="2"/>
<path d="M2.70312 161.055H206.097" stroke="#BBC4D9" stroke-width="2" stroke-miterlimit="10" stroke-linecap="round" stroke-linejoin="round"/>
<path d="M15.884 71.5283C18.7991 71.5283 21.1623 69.1724 21.1623 66.2661C21.1623 63.3598 18.7991 61.0039 15.884 61.0039C12.9687 61.0039 10.6055 63.3598 10.6055 66.2661C10.6055 69.1724 12.9687 71.5283 15.884 71.5283Z" fill="#BBC4D9"/>
<path d="M10.6087 54.4579C12.5996 54.4579 14.2135 52.849 14.2135 50.8642C14.2135 48.8795 12.5996 47.2705 10.6087 47.2705C8.61784 47.2705 7.00391 48.8795 7.00391 50.8642C7.00391 52.849 8.61784 54.4579 10.6087 54.4579Z" fill="#BBC4D9"/>
<path d="M161.265 12.3437C163.255 12.3437 164.87 10.7347 164.87 8.74995C164.87 6.7652 163.255 5.15625 161.265 5.15625C159.275 5.15625 157.66 6.7652 157.66 8.74995C157.66 10.7347 159.275 12.3437 161.265 12.3437Z" fill="#BBC4D9"/>
<path d="M199.402 84.765C203.099 84.765 206.096 81.777 206.096 78.091C206.096 74.4052 203.099 71.417 199.402 71.417C195.704 71.417 192.707 74.4052 192.707 78.091C192.707 81.777 195.704 84.765 199.402 84.765Z" fill="#BBC4D9"/>
</svg>
