<svg width="111" height="85" viewBox="0 0 111 85" fill="none" xmlns="http://www.w3.org/2000/svg">
<g clip-path="url(#clip0_1657_49959)">
<path d="M54.113 83.7651C76.7491 83.7651 95.1126 65.1826 95.1126 42.206C95.1126 19.2294 76.7491 0.738281 54.113 0.738281C31.4767 0.738281 13.1133 19.321 13.1133 42.2976C13.1133 65.2742 31.4767 83.7651 54.113 83.7651Z" fill="#F5F8FE" stroke="#BBC4D9" stroke-width="2" stroke-miterlimit="10"/>
<path d="M74.2947 83.8856C68.0222 84.0684 60.5676 83.8856 55.204 83.794C49.9313 83.9767 42.3859 84.0684 36.1133 83.8856C42.2951 80.3156 44.4768 73.7245 44.7495 69.3306H65.4766C66.0221 73.6328 68.2036 80.3156 74.2947 83.8856Z" fill="#BBC4D9" stroke="#BBC4D9" stroke-width="2" stroke-miterlimit="10"/>
<path d="M94.3851 13.9487V68.5984C94.3851 69.9711 93.2937 70.9784 92.112 70.9784H18.7493C17.4766 70.9784 16.4766 69.8801 16.4766 68.5984V13.9487C16.4766 12.6671 17.5674 11.5686 18.7493 11.5686H92.0216C93.3848 11.5686 94.3851 12.6671 94.3851 13.9487Z" fill="white" stroke="#BBC4D9" stroke-width="2" stroke-miterlimit="10"/>
<path d="M94.3851 13.9487V61.0003H16.4766V13.9487C16.4766 12.6671 17.5674 11.5686 18.7493 11.5686H92.0216C93.3848 11.5686 94.3851 12.6671 94.3851 13.9487Z" fill="white" stroke="#BBC4D9" stroke-width="2" stroke-miterlimit="10"/>
<path d="M55.2959 67.7182C56.3867 67.7182 57.2049 66.8941 57.2049 65.7956C57.2049 64.6972 56.3867 63.8733 55.2959 63.8733C54.2049 63.8733 53.3867 64.6972 53.3867 65.7956C53.3867 66.8941 54.2049 67.7182 55.2959 67.7182Z" fill="#BBC4D9"/>
<path d="M87.2028 22.645V28.2289C87.2028 29.0528 86.5661 29.6936 85.7478 29.6936H24.6577C23.8395 29.6936 23.2031 29.0528 23.2031 28.2289V22.645C23.2031 21.8211 23.8395 21.1804 24.6577 21.1804H85.6574C86.5661 21.0888 87.2028 21.8211 87.2028 22.645Z" fill="#BBC4D9"/>
<path d="M31.7495 21.0889V29.7852H24.5678C23.7496 29.7852 23.1133 29.1444 23.1133 28.3205V22.7365C23.1133 21.9127 23.7496 21.2719 24.5678 21.2719L31.7495 21.0889Z" fill="#EEF1FF"/>
<path opacity="0.8" d="M87.2028 34.362V39.946C87.2028 40.7699 86.5661 41.4107 85.7478 41.4107H24.6577C23.8395 41.4107 23.2031 40.7699 23.2031 39.946V34.362C23.2031 33.5382 23.8395 32.8974 24.6577 32.8974H85.6574C86.5661 32.8059 87.2028 33.5382 87.2028 34.362Z" fill="#BBC4D9"/>
<path d="M31.7495 21.0889V29.7852H24.5678C23.7496 29.7852 23.1133 29.1444 23.1133 28.3205V22.7365C23.1133 21.9127 23.7496 21.2719 24.5678 21.2719L31.7495 21.0889Z" fill="#BBC4D9"/>
<path d="M27.2024 27.3134C27.0206 27.3134 26.8388 27.2218 26.7479 27.1303L25.3842 25.7572C25.1115 25.4826 25.1115 25.1164 25.3842 24.8418C25.657 24.5671 26.0206 24.5671 26.2934 24.8418L27.1115 25.6657L29.1115 23.6518C29.3842 23.3771 29.7479 23.3771 30.0206 23.6518C30.2933 23.9264 30.2933 24.2925 30.0206 24.5671L27.5661 27.0388C27.4751 27.2218 27.2933 27.3134 27.2024 27.3134Z" fill="white"/>
<path opacity="0.5" d="M87.2028 46.0793V51.6632C87.2028 52.4871 86.5661 53.1279 85.7478 53.1279H24.6577C23.8395 53.1279 23.2031 52.4871 23.2031 51.6632V46.0793C23.2031 45.2554 23.8395 44.6147 24.6577 44.6147H85.6574C86.5661 44.5231 87.2028 45.1639 87.2028 46.0793Z" fill="#BBC4D9"/>
<path opacity="0.3" d="M87.2038 57.6585V60.3072H23.1133V57.6585C23.1133 56.8346 23.7496 56.1938 24.5678 56.1938H85.6585C86.5671 56.1938 87.2038 56.8346 87.2038 57.6585Z" fill="#BBC4D9"/>
<path d="M22.3858 80.8644C22.3858 82.4205 21.1131 83.7022 19.5677 83.7022H3.93144C2.386 83.7022 1.11328 82.4205 1.11328 80.8644V43.8823C1.11328 42.3262 2.386 41.0446 3.93144 41.0446H19.4767C21.0222 41.0446 22.2949 42.3262 22.2949 43.8823L22.3858 80.8644Z" fill="white"/>
<path d="M19.5677 40.953C21.1131 40.953 22.3858 42.2346 22.3858 43.7907V80.7728C22.3858 82.3295 21.1131 83.6106 19.5677 83.6106H3.93144C2.386 83.6106 1.11328 82.3295 1.11328 80.7728V43.8823C1.11328 42.3261 2.386 41.0446 3.93144 41.0446L19.5677 40.953Z" fill="#BBC4D9" stroke="#BBC4D9" stroke-width="2" stroke-miterlimit="10"/>
<path d="M21.0218 43.8823V80.8645C21.0218 81.5967 20.4764 82.3296 19.6583 82.3296H19.5673H3.93109H3.84019C3.11292 82.3296 2.47656 81.6884 2.47656 80.8645V43.8823C2.47656 43.0585 3.11292 42.4177 3.84019 42.4177H6.1129C6.47652 42.4177 6.65836 42.6923 6.65836 42.967C6.65836 43.5162 7.11287 44.0654 7.74922 44.0654H15.6583C16.2037 44.0654 16.7492 43.6077 16.7492 42.967C16.7492 42.6008 17.0219 42.4177 17.2037 42.4177H19.3855C20.2946 42.3262 21.0218 43.0585 21.0218 43.8823Z" fill="white"/>
<path d="M13.1147 42.967H11.0238C10.842 42.967 10.6602 42.7838 10.6602 42.6008C10.6602 42.4177 10.842 42.2346 11.0238 42.2346H13.1147C13.2965 42.2346 13.4784 42.4177 13.4784 42.6008C13.3874 42.7838 13.2056 42.967 13.1147 42.967Z" fill="white"/>
<path d="M9.8384 42.967H9.65654C9.47476 42.967 9.29297 42.7838 9.29297 42.6008C9.29297 42.4177 9.47476 42.2346 9.65654 42.2346H9.8384C10.0202 42.2346 10.202 42.4177 10.202 42.6008C10.202 42.7838 10.0202 42.967 9.8384 42.967Z" fill="white"/>
<path d="M18.8387 56.1488H4.65696C4.20242 56.1488 3.92969 55.7826 3.92969 55.4164V48.1847C3.92969 47.7271 4.29332 47.4524 4.65696 47.4524H18.9295C19.3841 47.4524 19.6568 47.8186 19.6568 48.1847V55.4164C19.5659 55.7826 19.2932 56.1488 18.8387 56.1488Z" fill="#BBC4D9"/>
<path d="M11.2024 53.6772C11.0206 53.6772 10.8388 53.5856 10.7479 53.4941L9.38422 52.121C9.11151 51.8464 9.11151 51.4802 9.38422 51.2056C9.657 50.9309 10.0206 50.9309 10.2934 51.2056L11.1115 52.0294L13.1115 50.0155C13.3842 49.7409 13.7479 49.7409 14.0206 50.0155C14.2933 50.2901 14.2933 50.6563 14.0206 50.9309L11.6569 53.311C11.4751 53.5856 11.2933 53.6772 11.2024 53.6772Z" fill="white"/>
<path opacity="0.8" d="M18.8387 66.9506H4.65696C4.20242 66.9506 3.92969 66.5843 3.92969 66.2181V58.9864C3.92969 58.5288 4.29332 58.2542 4.65696 58.2542H18.9295C19.3841 58.2542 19.6568 58.6203 19.6568 58.9864V66.2181C19.5659 66.5843 19.2932 66.9506 18.8387 66.9506Z" fill="#BBC4D9"/>
<path opacity="0.5" d="M18.8387 77.7523H4.65696C4.20242 77.7523 3.92969 77.3862 3.92969 77.0201V69.7884C3.92969 69.3306 4.29332 69.0562 4.65696 69.0562H18.9295C19.3841 69.0562 19.6568 69.4223 19.6568 69.7884V77.0201C19.5659 77.4778 19.2932 77.7523 18.8387 77.7523Z" fill="#BBC4D9"/>
<path opacity="0.3" d="M19.567 80.7734V82.2378H19.4761H3.93075H3.83984V80.7734C3.83984 80.3156 4.20348 80.0405 4.56711 80.0405H18.8397C19.2943 80.0405 19.567 80.4066 19.567 80.7734Z" fill="#BBC4D9"/>
<path d="M22.1111 17.9765C22.5657 17.9765 22.9293 17.6103 22.9293 17.1526C22.9293 16.6949 22.5657 16.3287 22.1111 16.3287C21.6566 16.3287 21.293 16.6949 21.293 17.1526C21.293 17.6103 21.6566 17.9765 22.1111 17.9765Z" fill="#EEF1FF"/>
<path d="M24.7478 17.9765C25.2024 17.9765 25.566 17.6103 25.566 17.1526C25.566 16.6949 25.2024 16.3287 24.7478 16.3287C24.2933 16.3287 23.9297 16.6949 23.9297 17.1526C23.9297 17.6103 24.2933 17.9765 24.7478 17.9765Z" fill="#EEF1FF"/>
<path d="M27.3846 17.9765C27.8391 17.9765 28.2028 17.6103 28.2028 17.1526C28.2028 16.6949 27.8391 16.3287 27.3846 16.3287C26.93 16.3287 26.5664 16.6949 26.5664 17.1526C26.5664 17.6103 26.93 17.9765 27.3846 17.9765Z" fill="#EEF1FF"/>
<path d="M109.487 69.0949C109.123 70.651 108.578 72.2988 107.941 73.6722C106.214 77.0588 103.487 79.7139 100.124 81.4527C96.6687 83.1922 92.5783 83.9244 88.4872 83.0088C78.8508 80.9949 72.6688 71.4749 74.6687 61.7717C76.6687 52.0685 86.0326 45.7522 95.669 47.8576C99.1233 48.5899 102.124 50.3292 104.669 52.7093C108.941 57.1032 110.669 63.2364 109.487 69.0949Z" fill="#BBC4D9" stroke="#BBC4D9" stroke-width="2" stroke-miterlimit="10"/>
<path d="M97.6703 63.208H94.244V59.7579C94.244 58.5905 93.3354 57.5325 92.0339 57.5325C90.8747 57.5325 89.8239 58.4474 89.8239 59.7579V63.208H86.3975C85.2383 63.208 84.1875 64.1229 84.1875 65.4335C84.1875 66.0515 84.4048 66.6163 84.8136 67.0282C85.2231 67.4399 85.784 67.6587 86.3975 67.6587H89.8239V71.1089C89.8239 72.2762 90.7325 73.3343 92.0339 73.3343C93.1931 73.3343 94.244 72.4194 94.244 71.1089V67.6587H97.6703C98.8196 67.6587 99.8624 66.7595 99.8804 65.4668C99.998 64.0866 98.8674 63.208 97.6703 63.208Z" fill="white" stroke="#BBC4D9" stroke-width="2"/>
<path d="M1.39453 83.9854H106.402" stroke="#BBC4D9" stroke-width="2" stroke-miterlimit="10" stroke-linecap="round" stroke-linejoin="round"/>
<path d="M8.20175 37.2998C9.70676 37.2998 10.9268 36.0713 10.9268 34.5557C10.9268 33.0402 9.70676 31.8116 8.20175 31.8116C6.69667 31.8116 5.47656 33.0402 5.47656 34.5557C5.47656 36.0713 6.69667 37.2998 8.20175 37.2998Z" fill="#BBC4D9"/>
<path d="M5.47437 28.3983C6.50221 28.3983 7.33546 27.5593 7.33546 26.5243C7.33546 25.4893 6.50221 24.6503 5.47437 24.6503C4.44652 24.6503 3.61328 25.4893 3.61328 26.5243C3.61328 27.5593 4.44652 28.3983 5.47437 28.3983Z" fill="#BBC4D9"/>
<path d="M83.2595 6.43712C84.2871 6.43712 85.1206 5.59809 85.1206 4.5631C85.1206 3.52811 84.2871 2.68909 83.2595 2.68909C82.2319 2.68909 81.3984 3.52811 81.3984 4.5631C81.3984 5.59809 82.2319 6.43712 83.2595 6.43712Z" fill="#BBC4D9"/>
<path d="M102.948 44.2027C104.857 44.2027 106.405 42.6445 106.405 40.7224C106.405 38.8003 104.857 37.2421 102.948 37.2421C101.04 37.2421 99.4922 38.8003 99.4922 40.7224C99.4922 42.6445 101.04 44.2027 102.948 44.2027Z" fill="#BBC4D9"/>
</g>
<defs>
<clipPath id="clip0_1657_49959">
<rect width="111" height="85" fill="white"/>
</clipPath>
</defs>
</svg>
