<svg width="50" height="50" viewBox="0 0 50 50" fill="none" xmlns="http://www.w3.org/2000/svg">
<circle opacity="0.1" cx="25" cy="25" r="25" fill="#3131C3"/>
<path d="M17.256 17.8008H33.156C34.656 17.8008 35.412 18.5088 35.412 19.9488V30.0528C35.412 31.4808 34.656 32.2008 33.156 32.2008H17.256C15.756 32.2008 15 31.4808 15 30.0528V19.9488C15 18.5088 15.756 17.8008 17.256 17.8008ZM25.2 28.1208L33.288 21.4848C33.576 21.2448 33.804 20.6928 33.444 20.2008C33.096 19.7088 32.46 19.6968 32.04 19.9968L25.2 24.6288L18.372 19.9968C17.952 19.6968 17.316 19.7088 16.968 20.2008C16.608 20.6928 16.836 21.2448 17.124 21.4848L25.2 28.1208Z" fill="#5C00DD"/>
</svg>
