<svg width="156" height="180" viewBox="0 0 156 180" fill="none" xmlns="http://www.w3.org/2000/svg">
<path d="M154.437 77.5447C154.437 96.1248 147.777 113.025 136.642 126.268C122.623 142.97 101.547 153.546 77.8849 153.546C55.2174 153.546 34.936 143.761 20.9179 128.245C8.88824 114.804 1.53125 97.0143 1.53125 77.5447C1.53125 35.5417 35.7314 1.54395 77.9844 1.54395C120.237 1.54395 154.437 35.5417 154.437 77.5447Z" fill="#F5F8FE" stroke="#BBC4D9" stroke-width="2" stroke-miterlimit="10"/>
<path d="M136.739 126.268C122.721 142.97 101.644 153.545 77.9827 153.545C55.3152 153.545 35.0338 143.76 21.0156 128.244C23.4017 126.367 26.3843 124.687 30.0628 123.204L32.8464 122.117C38.1157 120.041 44.9756 117.472 54.2215 113.617C56.3094 112.728 57.9995 111.147 58.8942 109.071C59.3913 107.984 59.6896 106.699 59.6896 105.415V88.3168C59.3913 87.9215 59.093 87.6251 58.8942 87.2298C57.4029 85.0555 56.4087 82.4858 56.1105 79.7187L54.6193 79.0268C50.1454 80.114 50.4436 75.37 49.35 66.2777C48.8529 62.5222 49.4494 61.7314 51.1395 61.1385L52.5314 59.2607C43.9813 39.9887 48.2564 27.9314 56.707 23.6816C53.9233 17.5541 53.7245 15.3799 53.7245 15.3799C53.7245 15.3799 71.7193 18.3448 77.9827 17.1588C85.8367 15.5776 97.9658 17.4553 102.44 27.8326C109.896 30.7974 112.879 35.4425 113.475 40.5817C114.569 48.6858 109.896 57.5806 109.001 61.0397C109.101 61.2372 109.2 61.3361 109.2 61.435C110.393 62.028 110.791 63.0162 110.393 66.2777C109.3 74.876 109.598 80.2128 105.124 79.0268L101.147 85.945C100.948 86.7356 100.948 87.0321 100.849 87.6251C100.65 88.9099 100.75 91.4794 100.75 105.612C100.75 107.292 101.247 108.874 102.141 110.356C103.136 111.839 104.527 113.123 106.317 113.815C106.317 113.815 106.416 113.815 106.516 113.914C116.756 118.164 124.113 120.931 129.482 123.006C132.265 123.896 134.651 125.082 136.739 126.268Z" fill="white"/>
<path d="M109.198 60.9408C109.596 58.7665 108.602 56.0981 107.807 54.2203C107.707 53.9238 107.508 53.6274 107.409 53.2321C103.929 46.3138 96.274 43.5466 88.917 43.1513C70.1269 42.1631 68.4367 45.7208 62.5711 40.3841C64.3606 43.1512 64.5594 47.401 61.7756 52.7379C59.7873 56.4934 56.0093 58.1735 52.7286 59.2607C44.1785 39.9886 48.4535 27.9314 56.9041 23.6816C54.1205 17.5541 53.9216 15.3799 53.9216 15.3799C53.9216 15.3799 71.9164 18.3448 78.0804 17.1588C85.9344 15.5776 98.0636 17.4553 102.537 27.8326C109.994 30.7974 112.877 35.4425 113.573 40.5817C114.666 48.587 110.093 57.3829 109.198 60.9408Z" fill="#BBC4D9"/>
<path d="M136.739 126.268C122.721 142.97 101.644 153.545 77.9827 153.545C55.3152 153.545 35.0338 143.76 21.0156 128.244C23.4017 126.367 26.3843 124.687 30.0628 123.204L32.8464 122.117C38.1157 120.041 44.9756 117.472 54.2215 113.617C56.3094 112.728 57.9995 111.147 58.8942 109.071C59.3913 107.984 59.6896 106.699 59.6896 105.415V88.3168C59.3913 87.9215 59.093 87.6251 58.8942 87.2298C57.4029 85.0555 56.4087 82.4858 56.1105 79.7187L54.6193 79.0268C50.1454 80.114 50.4436 75.37 49.35 66.2777C48.8529 62.5222 49.4494 61.7314 51.1395 61.1385L52.5314 59.2607C43.9813 39.9887 48.2564 27.9314 56.707 23.6816C53.9233 17.5541 53.7245 15.3799 53.7245 15.3799C53.7245 15.3799 71.7193 18.3448 77.9827 17.1588C85.8367 15.5776 97.9658 17.4553 102.44 27.8326C109.896 30.7974 112.879 35.4425 113.475 40.5817C114.569 48.6858 109.896 57.5806 109.001 61.0397C109.101 61.2372 109.2 61.3361 109.2 61.435C110.393 62.028 110.791 63.0162 110.393 66.2777C109.3 74.876 109.598 80.2128 105.124 79.0268L101.147 85.945C100.948 86.7356 100.948 87.0321 100.849 87.6251C100.65 88.9099 100.75 91.4794 100.75 105.612C100.75 107.292 101.247 108.874 102.141 110.356C103.136 111.839 104.527 113.123 106.317 113.815C106.317 113.815 106.416 113.815 106.516 113.914C116.756 118.164 124.113 120.931 129.482 123.006C132.265 123.896 134.651 125.082 136.739 126.268Z" stroke="#BBC4D9" stroke-width="2" stroke-miterlimit="10"/>
<path d="M58.4141 86.4835C59.3182 88.0811 60.5673 89.3418 62.0741 90.54L75.8351 100.026C79.0494 102.722 83.6699 102.822 86.9846 100.226L99.8417 88.7427C100.243 88.3432 100.725 87.4447 101.26 85.7793" stroke="#BBC4D9" stroke-width="2" stroke-miterlimit="10"/>
<path d="M108.377 155.416C107.8 157.855 106.935 160.437 105.925 162.587C103.183 167.894 98.8551 172.054 93.517 174.779C88.0344 177.504 81.542 178.651 75.0497 177.217C59.7565 174.061 49.9458 159.145 53.1198 143.943C56.2939 128.74 71.1543 118.844 86.4474 122.143C91.93 123.29 96.691 126.015 100.731 129.744C107.512 136.485 110.397 146.238 108.377 155.416Z" fill="#BBC4D9" stroke="#BBC4D9" stroke-width="2" stroke-miterlimit="10"/>
<path d="M89.7669 145.857H84.6674V140.788C84.6674 138.786 83.0869 136.965 80.8219 136.965C78.8083 136.965 76.9763 138.535 76.9763 140.788V145.857H71.8768C69.8633 145.857 68.0312 147.429 68.0312 149.68C68.0312 150.728 68.4062 151.702 69.1245 152.416C69.8428 153.129 70.8218 153.503 71.8768 153.503H76.9763V158.572C76.9763 160.573 78.5568 162.395 80.8219 162.395C82.8355 162.395 84.6674 160.824 84.6674 158.572V153.503H89.7669C91.7806 153.503 93.6125 151.932 93.6125 149.68C93.6125 147.429 91.7806 145.857 89.7669 145.857Z" fill="white" stroke="#BBC4D9" stroke-width="2"/>
</svg>
