<svg width="48" height="49" viewBox="0 0 48 49" fill="none" xmlns="http://www.w3.org/2000/svg">
<circle cx="24" cy="24.5" r="24" fill="#EEF1FF"/>
<g clip-path="url(#clip0_264_12710)">
<path d="M32.2188 24.8014H29.8695C29.5497 24.8014 29.2402 24.8451 28.9456 24.9255C28.3644 23.783 27.1779 22.998 25.8107 22.998H21.658C20.2908 22.998 19.1043 23.783 18.5232 24.9255C18.2286 24.8451 17.919 24.8014 17.5993 24.8014H15.25C13.3115 24.8014 11.7344 26.3785 11.7344 28.317V32.0726C11.7344 33.2357 12.6806 34.182 13.8438 34.182H33.625C34.7881 34.182 35.7344 33.2357 35.7344 32.0726V28.317C35.7344 26.3785 34.1573 24.8014 32.2188 24.8014ZM18.1424 26.5138V32.7758H13.8438C13.456 32.7758 13.1406 32.4603 13.1406 32.0726V28.3171C13.1406 27.154 14.0869 26.2077 15.25 26.2077H17.5993C17.7902 26.2077 17.975 26.2336 18.151 26.2814C18.1459 26.3583 18.1424 26.4357 18.1424 26.5138ZM27.9201 32.7758H19.5487V26.5137C19.5487 25.3506 20.4949 24.4043 21.658 24.4043H25.8107C26.9738 24.4043 27.9201 25.3506 27.9201 26.5137V32.7758ZM34.3281 32.0726C34.3281 32.4603 34.0127 32.7758 33.625 32.7758H29.3263V26.5137C29.3263 26.4356 29.3229 26.3582 29.3178 26.2814C29.4938 26.2336 29.6786 26.2077 29.8695 26.2077H32.2188C33.3819 26.2077 34.3281 27.1539 34.3281 28.317V32.0726Z" fill="#5C00DD"/>
<path d="M16.4248 18.1621C14.7022 18.1621 13.3008 19.5635 13.3008 21.2861C13.3007 23.0087 14.7022 24.4102 16.4248 24.4102C18.1474 24.4102 19.5488 23.0087 19.5488 21.2861C19.5488 19.5635 18.1474 18.1621 16.4248 18.1621ZM16.4248 23.0039C15.4776 23.0039 14.707 22.2333 14.707 21.2861C14.707 20.3389 15.4776 19.5684 16.4248 19.5684C17.372 19.5684 18.1425 20.3389 18.1425 21.2861C18.1425 22.2333 17.372 23.0039 16.4248 23.0039Z" fill="#5C00DD"/>
<path d="M23.7362 14.2812C21.4348 14.2812 19.5625 16.1535 19.5625 18.4549C19.5625 20.7563 21.4348 22.6286 23.7362 22.6286C26.0375 22.6286 27.9098 20.7563 27.9098 18.4549C27.9098 16.1536 26.0375 14.2812 23.7362 14.2812ZM23.7362 21.2223C22.2102 21.2223 20.9688 19.9809 20.9688 18.4549C20.9688 16.929 22.2102 15.6875 23.7362 15.6875C25.2621 15.6875 26.5036 16.9289 26.5036 18.4549C26.5036 19.9809 25.2621 21.2223 23.7362 21.2223Z" fill="#5C00DD"/>
<path d="M31.0459 18.1621C29.3233 18.1621 27.9219 19.5635 27.9219 21.2861C27.9219 23.0087 29.3233 24.4102 31.0459 24.4102C32.7685 24.4102 34.1699 23.0087 34.1699 21.2861C34.1699 19.5635 32.7685 18.1621 31.0459 18.1621ZM31.0459 23.0039C30.0987 23.0039 29.3281 22.2333 29.3281 21.2861C29.3282 20.3389 30.0987 19.5684 31.0459 19.5684C31.9931 19.5684 32.7637 20.3389 32.7637 21.2861C32.7637 22.2333 31.9931 23.0039 31.0459 23.0039Z" fill="#5C00DD"/>
</g>
<defs>
<clipPath id="clip0_264_12710">
<rect width="24" height="24" fill="white" transform="translate(11.7344 12.2324)"/>
</clipPath>
</defs>
</svg>
