<svg width="50" height="50" viewBox="0 0 50 50" fill="none" xmlns="http://www.w3.org/2000/svg">
<circle opacity="0.1" cx="25" cy="25" r="25" fill="#3131C3"/>
<g clip-path="url(#clip0_12_24158)">
<path d="M25 16C27.717 16 28.056 16.01 29.122 16.06C30.187 16.11 30.912 16.277 31.55 16.525C32.21 16.779 32.766 17.123 33.322 17.678C33.8305 18.1779 34.224 18.7826 34.475 19.45C34.722 20.087 34.89 20.813 34.94 21.878C34.987 22.944 35 23.283 35 26C35 28.717 34.99 29.056 34.94 30.122C34.89 31.187 34.722 31.912 34.475 32.55C34.2247 33.2178 33.8311 33.8226 33.322 34.322C32.822 34.8303 32.2173 35.2238 31.55 35.475C30.913 35.722 30.187 35.89 29.122 35.94C28.056 35.987 27.717 36 25 36C22.283 36 21.944 35.99 20.878 35.94C19.813 35.89 19.088 35.722 18.45 35.475C17.7823 35.2245 17.1775 34.8309 16.678 34.322C16.1694 33.8222 15.7759 33.2175 15.525 32.55C15.277 31.913 15.11 31.187 15.06 30.122C15.013 29.056 15 28.717 15 26C15 23.283 15.01 22.944 15.06 21.878C15.11 20.812 15.277 20.088 15.525 19.45C15.7752 18.7822 16.1688 18.1773 16.678 17.678C17.1777 17.1692 17.7824 16.7757 18.45 16.525C19.088 16.277 19.812 16.11 20.878 16.06C21.944 16.013 22.283 16 25 16ZM25 21C23.6739 21 22.4021 21.5268 21.4645 22.4645C20.5268 23.4021 20 24.6739 20 26C20 27.3261 20.5268 28.5979 21.4645 29.5355C22.4021 30.4732 23.6739 31 25 31C26.3261 31 27.5979 30.4732 28.5355 29.5355C29.4732 28.5979 30 27.3261 30 26C30 24.6739 29.4732 23.4021 28.5355 22.4645C27.5979 21.5268 26.3261 21 25 21ZM31.5 20.75C31.5 20.4185 31.3683 20.1005 31.1339 19.8661C30.8995 19.6317 30.5815 19.5 30.25 19.5C29.9185 19.5 29.6005 19.6317 29.3661 19.8661C29.1317 20.1005 29 20.4185 29 20.75C29 21.0815 29.1317 21.3995 29.3661 21.6339C29.6005 21.8683 29.9185 22 30.25 22C30.5815 22 30.8995 21.8683 31.1339 21.6339C31.3683 21.3995 31.5 21.0815 31.5 20.75ZM25 23C25.7956 23 26.5587 23.3161 27.1213 23.8787C27.6839 24.4413 28 25.2044 28 26C28 26.7956 27.6839 27.5587 27.1213 28.1213C26.5587 28.6839 25.7956 29 25 29C24.2044 29 23.4413 28.6839 22.8787 28.1213C22.3161 27.5587 22 26.7956 22 26C22 25.2044 22.3161 24.4413 22.8787 23.8787C23.4413 23.3161 24.2044 23 25 23Z" fill="#5C00DD"/>
</g>
<defs>
<clipPath id="clip0_12_24158">
<rect width="24" height="24" fill="white" transform="translate(13 14)"/>
</clipPath>
</defs>
</svg>
