<svg width="32" height="32" viewBox="0 0 32 32" fill="none" xmlns="http://www.w3.org/2000/svg">
<path opacity="0.1" fill-rule="evenodd" clip-rule="evenodd" d="M0 16C0 7.16344 7.16344 0 16 0C24.8366 0 32 7.16344 32 16C32 24.8366 24.8366 32 16 32C7.16344 32 0 24.8366 0 16Z" fill="white"/>
<path fill-rule="evenodd" clip-rule="evenodd" d="M15.999 7.4668C13.6814 7.4668 13.3906 7.47693 12.4804 7.51835C11.5719 7.55995 10.9518 7.70378 10.4092 7.9148C9.84798 8.13276 9.37189 8.42432 8.89757 8.89881C8.4229 9.37313 8.13134 9.84922 7.91267 10.4103C7.70111 10.9531 7.55711 11.5733 7.51622 12.4814C7.47551 13.3917 7.46484 13.6827 7.46484 16.0002C7.46484 18.3178 7.47515 18.6077 7.5164 19.5179C7.55818 20.4264 7.702 21.0465 7.91285 21.5891C8.13098 22.1503 8.42254 22.6264 8.89704 23.1007C9.37117 23.5754 9.84727 23.8677 10.4082 24.0856C10.9511 24.2967 11.5714 24.4405 12.4797 24.4821C13.3899 24.5235 13.6806 24.5336 15.9979 24.5336C18.3156 24.5336 18.6056 24.5235 19.5158 24.4821C20.4243 24.4405 21.0451 24.2967 21.588 24.0856C22.1491 23.8677 22.6245 23.5754 23.0986 23.1007C23.5733 22.6264 23.8648 22.1503 24.0835 21.5893C24.2933 21.0465 24.4373 20.4262 24.48 19.5181C24.5208 18.6079 24.5315 18.3178 24.5315 16.0002C24.5315 13.6827 24.5208 13.3918 24.48 12.4816C24.4373 11.5732 24.2933 10.9531 24.0835 10.4105C23.8648 9.84922 23.5733 9.37313 23.0986 8.89881C22.6239 8.42414 22.1493 8.13258 21.5875 7.9148C21.0435 7.70378 20.423 7.55995 19.5146 7.51835C18.6043 7.47693 18.3146 7.4668 15.9963 7.4668H15.999ZM15.2334 9.00457C15.4606 9.00421 15.7141 9.00457 15.9989 9.00457C18.2774 9.00457 18.5474 9.01274 19.4472 9.05363C20.2792 9.09168 20.7307 9.2307 21.0315 9.3475C21.4298 9.50217 21.7137 9.68706 22.0122 9.98573C22.3108 10.2844 22.4957 10.5688 22.6507 10.9671C22.7675 11.2675 22.9067 11.7191 22.9446 12.5511C22.9855 13.4507 22.9944 13.7209 22.9944 15.9982C22.9944 18.2756 22.9855 18.5458 22.9446 19.4454C22.9066 20.2774 22.7675 20.729 22.6507 21.0294C22.4961 21.4276 22.3108 21.7112 22.0122 22.0097C21.7135 22.3084 21.4299 22.4932 21.0315 22.6479C20.7311 22.7652 20.2792 22.9039 19.4472 22.942C18.5476 22.9828 18.2774 22.9917 15.9989 22.9917C13.7203 22.9917 13.4503 22.9828 12.5507 22.942C11.7187 22.9036 11.2672 22.7645 10.9662 22.6477C10.568 22.4931 10.2835 22.3082 9.98483 22.0095C9.68616 21.7108 9.50127 21.4271 9.34625 21.0287C9.22945 20.7282 9.09025 20.2767 9.05238 19.4447C9.01149 18.5451 9.00331 18.2749 9.00331 15.9961C9.00331 13.7173 9.01149 13.4485 9.05238 12.549C9.09042 11.717 9.22945 11.2654 9.34625 10.9646C9.50092 10.5664 9.68616 10.2819 9.98483 9.98324C10.2835 9.68457 10.568 9.49968 10.9662 9.34466C11.267 9.22732 11.7187 9.08866 12.5507 9.05043C13.3379 9.01488 13.643 9.00421 15.2334 9.00243V9.00457ZM20.554 10.4215C19.9887 10.4215 19.53 10.8796 19.53 11.4451C19.53 12.0105 19.9887 12.4691 20.554 12.4691C21.1194 12.4691 21.578 12.0105 21.578 11.4451C21.578 10.8798 21.1194 10.4215 20.554 10.4215ZM15.999 11.6179C13.5789 11.6179 11.6167 13.5801 11.6167 16.0002C11.6167 18.4203 13.5789 20.3816 15.999 20.3816C18.4191 20.3816 20.3805 18.4203 20.3805 16.0002C20.3805 13.5801 18.4191 11.6179 15.999 11.6179ZM15.999 13.1557C17.5698 13.1557 18.8434 14.4292 18.8434 16.0002C18.8434 17.5711 17.5698 18.8447 15.999 18.8447C14.4279 18.8447 13.1545 17.5711 13.1545 16.0002C13.1545 14.4292 14.4279 13.1557 15.999 13.1557Z" fill="white"/>
</svg>
