<svg width="50" height="50" viewBox="0 0 50 50" fill="none" xmlns="http://www.w3.org/2000/svg">
<circle opacity="0.1" cx="25" cy="25" r="25" fill="#3131C3"/>
<path d="M19.9414 17.999C19.9411 18.5295 19.7302 19.0381 19.3549 19.413C18.9797 19.7879 18.4708 19.9983 17.9404 19.998C17.41 19.9978 16.9014 19.7868 16.5265 19.4116C16.1516 19.0363 15.9411 18.5275 15.9414 17.997C15.9417 17.4666 16.1526 16.958 16.5279 16.5831C16.9032 16.2082 17.412 15.9978 17.9424 15.998C18.4728 15.9983 18.9814 16.2093 19.3563 16.5845C19.7312 16.9598 19.9417 17.4686 19.9414 17.999V17.999ZM20.0014 21.479H16.0014V33.999H20.0014V21.479ZM26.3214 21.479H22.3414V33.999H26.2814V27.429C26.2814 23.769 31.0514 23.429 31.0514 27.429V33.999H35.0014V26.069C35.0014 19.899 27.9414 20.129 26.2814 23.159L26.3214 21.479V21.479Z" fill="#5C00DD"/>
</svg>
