<svg width="32" height="32" viewBox="0 0 32 32" fill="none" xmlns="http://www.w3.org/2000/svg">
<path opacity="0.1" fill-rule="evenodd" clip-rule="evenodd" d="M0 16C0 7.16344 7.16344 0 16 0C24.8366 0 32 7.16344 32 16C32 24.8366 24.8366 32 16 32C7.16344 32 0 24.8366 0 16Z" fill="white"/>
<path d="M8.66667 7.75H23.3333C23.5764 7.75 23.8096 7.84658 23.9815 8.01849C24.1534 8.19039 24.25 8.42355 24.25 8.66667V23.3333C24.25 23.5764 24.1534 23.8096 23.9815 23.9815C23.8096 24.1534 23.5764 24.25 23.3333 24.25H8.66667C8.42355 24.25 8.19039 24.1534 8.01849 23.9815C7.84658 23.8096 7.75 23.5764 7.75 23.3333V8.66667C7.75 8.42355 7.84658 8.19039 8.01849 8.01849C8.19039 7.84658 8.42355 7.75 8.66667 7.75ZM9.58333 9.58333V22.4167H22.4167V9.58333H9.58333ZM11.875 13.25C11.5103 13.25 11.1606 13.1051 10.9027 12.8473C10.6449 12.5894 10.5 12.2397 10.5 11.875C10.5 11.5103 10.6449 11.1606 10.9027 10.9027C11.1606 10.6449 11.5103 10.5 11.875 10.5C12.2397 10.5 12.5894 10.6449 12.8473 10.9027C13.1051 11.1606 13.25 11.5103 13.25 11.875C13.25 12.2397 13.1051 12.5894 12.8473 12.8473C12.5894 13.1051 12.2397 13.25 11.875 13.25ZM10.9583 14.1667H12.7917V21.0417H10.9583V14.1667ZM16 14.5608C16.5353 14.0429 17.1605 13.7083 17.8333 13.7083C19.7318 13.7083 21.0417 15.2474 21.0417 17.1458V21.0417H19.2083V17.1458C19.2083 16.7204 19.0393 16.3124 18.7385 16.0115C18.4376 15.7107 18.0296 15.5417 17.6042 15.5417C17.1787 15.5417 16.7707 15.7107 16.4698 16.0115C16.169 16.3124 16 16.7204 16 17.1458V21.0417H14.1667V14.1667H16V14.5608Z" fill="white"/>
</svg>
