<svg width="32" height="32" viewBox="0 0 32 32" fill="none" xmlns="http://www.w3.org/2000/svg">
<path opacity="0.1" fill-rule="evenodd" clip-rule="evenodd" d="M0 16C0 7.16344 7.16344 0 16 0C24.8366 0 32 7.16344 32 16C32 24.8366 24.8366 32 16 32C7.16344 32 0 24.8366 0 16Z" fill="white"/>
<path d="M8.91667 8H23.5833C23.8264 8 24.0596 8.09658 24.2315 8.26849C24.4034 8.44039 24.5 8.67355 24.5 8.91667V23.5833C24.5 23.8264 24.4034 24.0596 24.2315 24.2315C24.0596 24.4034 23.8264 24.5 23.5833 24.5H8.91667C8.67355 24.5 8.44039 24.4034 8.26849 24.2315C8.09658 24.0596 8 23.8264 8 23.5833V8.91667C8 8.67355 8.09658 8.44039 8.26849 8.26849C8.44039 8.09658 8.67355 8 8.91667 8ZM9.83333 9.83333V22.6667H22.6667V9.83333H9.83333ZM21.1083 19.8617L21.9837 20.7362V20.782H17.4728V20.7362L18.3932 19.8617C18.4848 19.77 18.5307 19.6783 18.5307 19.5399V14.1087C18.5307 13.8777 18.5307 13.5559 18.5774 13.28L15.5396 20.8746H15.4938L12.3633 13.8777C12.3175 13.6943 12.2717 13.6943 12.2258 13.6027V18.2043C12.1791 18.527 12.2258 18.8029 12.3633 19.0798L13.6063 20.7362V20.782H10.2917V20.7362L11.5347 19.033C11.6722 18.758 11.718 18.4353 11.6722 18.1585V13.0967C11.6722 12.8666 11.6263 12.5898 11.443 12.4064L10.6134 11.2542V11.2083H13.8355L16.5048 17.1465L18.8533 11.2083H21.9837V11.2542L21.1093 12.2671C21.0176 12.3588 20.9717 12.4972 20.9717 12.5888V19.5858C20.9717 19.6774 21.0176 19.8158 21.1093 19.8617H21.1083Z" fill="white"/>
</svg>
