<svg width="194" height="194" viewBox="0 0 194 194" fill="none" xmlns="http://www.w3.org/2000/svg">
<path d="M48.514 169.75H145.484C148.149 169.756 150.718 168.749 152.676 166.931C160.845 159.322 167.38 150.112 171.88 139.868C176.379 129.624 178.748 118.563 178.84 107.363C179.259 61.8265 142.463 24.3577 97.1974 24.2502C51.9056 24.1427 15.1563 61.0475 15.1563 106.587C15.1434 117.922 17.4633 129.136 21.9699 139.524C26.4765 149.912 33.0722 159.249 41.3417 166.947C43.2957 168.758 45.8575 169.759 48.514 169.75Z" fill="#F5F8FE"/>
<path d="M124.967 110.894L164.233 117.195L161.968 105.35C161.343 102.083 159.756 99.0764 157.411 96.7169C155.066 94.3575 152.069 92.7524 148.806 92.1079L108.059 84.0596L105.246 99.4057L125.708 106.33C125.394 107.893 125.143 109.416 124.967 110.894Z" fill="#BBC4D9"/>
<path d="M124.967 110.894L164.233 117.195L161.968 105.35C161.343 102.083 159.756 99.0764 157.411 96.7169C155.066 94.3575 152.069 92.7524 148.806 92.1079L108.059 84.0596L105.246 99.4057L125.708 106.33C125.394 107.893 125.143 109.416 124.967 110.894Z" fill="#BBC4D9"/>
<path d="M123.515 52.8026L41.0471 32.8377C36.6432 31.7716 32.209 34.4773 31.143 38.8808L19.6971 86.16C18.631 90.5636 21.3367 94.998 25.7404 96.0638L108.209 116.029C112.612 117.095 117.047 114.389 118.113 109.986L129.558 62.7065C130.625 58.3028 127.919 53.8688 123.515 52.8026Z" fill="#BBC4D9"/>
<path d="M97.5742 110.148L102.935 144.529C102.993 144.901 103.141 145.252 103.365 145.554C103.59 145.855 103.885 146.097 104.225 146.258C104.564 146.42 104.938 146.495 105.314 146.479C105.689 146.464 106.055 146.356 106.38 146.166L107.226 145.672C109.044 144.609 110.523 143.052 111.49 141.182C112.457 139.311 112.873 137.204 112.689 135.107L111.386 120.252L97.5742 110.148Z" fill="#BBC4D9"/>
<path d="M97.5742 110.148L102.935 144.529C102.993 144.901 103.141 145.252 103.365 145.554C103.59 145.855 103.885 146.097 104.225 146.258C104.564 146.42 104.938 146.495 105.314 146.479C105.689 146.464 106.055 146.356 106.38 146.166L107.226 145.672C109.044 144.609 110.523 143.052 111.49 141.182C112.457 139.311 112.873 137.204 112.689 135.107L111.386 120.252L97.5742 110.148Z" fill="#BBC4D9"/>
<path d="M91.9141 96.709L92.2638 128.294C92.2676 128.635 92.3543 128.97 92.5173 129.27C92.6802 129.57 92.9136 129.825 93.1978 130.014C93.482 130.204 93.8078 130.32 94.1473 130.355C94.4868 130.389 94.8297 130.34 95.1458 130.212L95.9699 129.878C97.7413 129.159 99.2724 127.952 100.384 126.397C101.496 124.843 102.143 123.004 102.251 121.095L103.01 107.58L91.9141 96.709Z" fill="#BBC4D9"/>
<path d="M91.9141 96.709L92.2638 128.294C92.2676 128.635 92.3543 128.97 92.5173 129.27C92.6802 129.57 92.9136 129.825 93.1978 130.014C93.482 130.204 93.8078 130.32 94.1473 130.355C94.4868 130.389 94.8297 130.34 95.1458 130.212L95.9699 129.878C97.7413 129.159 99.2724 127.952 100.384 126.397C101.496 124.843 102.143 123.004 102.251 121.095L103.01 107.58L91.9141 96.709Z" fill="#BBC4D9"/>
<path d="M122.23 52.5702L39.7616 32.6053C35.3581 31.5392 30.9239 34.2448 29.8578 38.6484L18.4119 85.9276C17.3458 90.3312 20.0515 94.7656 24.4552 95.8314L106.924 115.796C111.327 116.863 115.761 114.157 116.828 109.753L128.273 62.474C129.34 58.0704 126.634 53.6364 122.23 52.5702Z" fill="#EEF1FF"/>
<path d="M52.5836 51.0929L38.644 47.7184C37.7057 47.4914 36.761 48.0677 36.5338 49.0059C36.3067 49.9441 36.8832 50.8887 37.8213 51.116L51.7609 54.4906C52.6991 54.7175 53.6441 54.1412 53.8711 53.203C54.098 52.2649 53.5217 51.3202 52.5836 51.0929Z" fill="#BBC4D9"/>
<path d="M73.8257 56.2355L59.8861 52.8609C58.9479 52.634 58.0029 53.2103 57.776 54.1485C57.549 55.0866 58.1253 56.0312 59.0635 56.2586L73.0031 59.6331C73.9413 59.8601 74.8863 59.2838 75.1132 58.3456C75.3402 57.4074 74.7639 56.4628 73.8257 56.2355Z" fill="#BBC4D9"/>
<path d="M81.1276 58.0032L95.0676 61.3778C95.5181 61.4869 95.9069 61.7707 96.1482 62.1663C96.3896 62.5618 96.4639 63.0374 96.3551 63.4879C96.246 63.9384 95.9622 64.3272 95.5666 64.5685C95.171 64.8099 94.6955 64.8845 94.245 64.7754L80.305 61.4009C79.8545 61.2918 79.4658 61.008 79.2244 60.6124C78.983 60.2168 78.9088 59.7413 79.0179 59.2908C79.1266 58.8402 79.4104 58.4515 79.806 58.2101C80.2016 57.9684 80.6771 57.8941 81.1276 58.0032Z" fill="#BBC4D9"/>
<path d="M102.37 63.1458L116.31 66.5204C116.76 66.6295 117.149 66.9133 117.39 67.3089C117.632 67.7045 117.706 68.18 117.597 68.6305C117.488 69.081 117.204 69.4698 116.809 69.7112C116.413 69.9529 115.938 70.0272 115.487 69.918L101.548 66.5435C101.097 66.4344 100.708 66.1506 100.467 65.755C100.225 65.3594 100.151 64.8839 100.26 64.4334C100.314 64.2102 100.411 63.9999 100.547 63.8146C100.682 63.6289 100.852 63.4721 101.048 63.3527C101.244 63.233 101.462 63.1534 101.689 63.1178C101.915 63.0822 102.147 63.0917 102.37 63.1458Z" fill="#BBC4D9"/>
<path d="M91.047 103.644C95.2517 103.644 98.6603 100.235 98.6603 96.0303C98.6603 91.8256 95.2517 88.417 91.047 88.417C86.8422 88.417 83.4336 91.8256 83.4336 96.0303C83.4336 100.235 86.8422 103.644 91.047 103.644Z" fill="#BBC4D9"/>
<path d="M91.047 103.644C95.2517 103.644 98.6603 100.235 98.6603 96.0303C98.6603 91.8256 95.2517 88.417 91.047 88.417C86.8422 88.417 83.4336 91.8256 83.4336 96.0303C83.4336 100.235 86.8422 103.644 91.047 103.644Z" fill="black" fill-opacity="0.15"/>
<path d="M50.5679 78.3976L32.7371 74.0811C31.5515 73.7939 30.3577 74.5226 30.0707 75.7082L27.5274 86.2137C27.2403 87.3993 27.9688 88.5932 29.1544 88.8801L46.9853 93.197C48.1709 93.4838 49.3645 92.7555 49.6517 91.5699L52.1949 81.0644C52.4821 79.8788 51.7535 78.6849 50.5679 78.3976Z" fill="#BBC4D9"/>
<path d="M125.324 120.89L102.76 99.6899C101.432 98.443 99.6746 97.756 97.8536 97.7723C96.0322 97.7886 94.2873 98.5066 92.9823 99.7771C91.6728 101.052 90.9078 102.785 90.8476 104.612C90.7874 106.438 91.4368 108.218 92.6595 109.576L113.431 132.656C113.943 134.505 114.399 136.523 114.871 138.607C116.175 144.347 118.779 149.712 122.484 154.287C126.189 158.862 130.895 162.524 136.239 164.992C140.55 166.985 145.138 169.031 149.506 171.531C149.99 171.805 150.534 171.95 151.09 171.956C151.645 171.961 152.193 171.826 152.681 171.562C162.616 166.259 171.036 160.033 175.468 151.377C175.709 150.9 175.83 150.372 175.82 149.837C175.809 149.303 175.668 148.78 175.409 148.313L167.398 133.743L161.968 105.35C161.343 102.083 159.757 99.0769 157.412 96.7174C155.067 94.358 152.07 92.7533 148.807 92.1084L125.708 106.33C124.612 111.785 124.257 116.78 125.324 120.89Z" fill="#EEF1FF"/>
<path d="M125.324 120.89L102.76 99.6899C101.432 98.443 99.6746 97.756 97.8536 97.7723C96.0322 97.7886 94.2873 98.5066 92.9823 99.7771C91.6728 101.052 90.9078 102.785 90.8476 104.612C90.7874 106.438 91.4368 108.218 92.6595 109.576L113.431 132.656C113.943 134.505 114.399 136.523 114.871 138.607C116.175 144.347 118.779 149.712 122.484 154.287C126.189 158.862 130.895 162.524 136.239 164.992C140.55 166.985 145.138 169.031 149.506 171.531C149.99 171.805 150.534 171.95 151.09 171.956C151.645 171.961 152.193 171.826 152.681 171.562C162.616 166.259 171.036 160.033 175.468 151.377C175.709 150.9 175.83 150.372 175.82 149.837C175.809 149.303 175.668 148.78 175.409 148.313L167.398 133.743L161.968 105.35C161.343 102.083 159.757 99.0769 157.412 96.7174C155.067 94.358 152.07 92.7533 148.807 92.1084L125.708 106.33C124.612 111.785 124.257 116.78 125.324 120.89Z" fill="#BBC4D9"/>
</svg>
