<svg width="199" height="153" viewBox="0 0 199 153" fill="none" xmlns="http://www.w3.org/2000/svg">
<path d="M175.721 116.562C179.01 116.562 181.677 113.887 181.677 110.588C181.677 107.288 179.01 104.613 175.721 104.613C172.431 104.613 169.766 107.288 169.766 110.588C169.766 113.887 172.431 116.562 175.721 116.562Z" fill="#EEF1FF"/>
<path d="M164.286 133.23C166.532 133.23 168.353 131.404 168.353 129.15C168.353 126.897 166.532 125.07 164.286 125.07C162.04 125.07 160.219 126.897 160.219 129.15C160.219 131.404 162.04 133.23 164.286 133.23Z" fill="#EEF1FF"/>
<path d="M32.5007 33.5047C34.747 33.5047 36.5679 31.6781 36.5679 29.4247C36.5679 27.1714 34.747 25.3447 32.5007 25.3447C30.2545 25.3447 28.4336 27.1714 28.4336 29.4247C28.4336 31.6781 30.2545 33.5047 32.5007 33.5047Z" fill="#EEF1FF"/>
<path d="M7.65876 112.19C11.8303 112.19 15.212 108.798 15.212 104.613C15.212 100.429 11.8303 97.0361 7.65876 97.0361C3.48719 97.0361 0.105469 100.429 0.105469 104.613C0.105469 108.798 3.48719 112.19 7.65876 112.19Z" fill="#EEF1FF"/>
<path d="M99.3906 150.221C140.062 150.221 173.036 117.144 173.036 76.1986C173.036 35.2529 140.062 2.17578 99.3906 2.17578C58.7191 2.17578 25.7461 35.2529 25.7461 76.1986C25.7461 117.144 58.7191 150.221 99.3906 150.221Z" fill="#EEF1FF" stroke="#BBC4D9" stroke-width="2" stroke-miterlimit="10"/>
<path d="M142.158 13.3018C144.349 13.3018 146.202 14.9837 146.202 17.3386V136.426C146.202 138.612 144.517 140.463 142.158 140.463H54.3683C52.1778 140.463 50.3242 138.781 50.3242 136.426V17.3386C50.3242 15.152 52.0093 13.3018 54.3683 13.3018H142.158Z" fill="#EEF1FF" stroke="#BBC4D9" stroke-width="2" stroke-miterlimit="10"/>
<path opacity="0.3" d="M146.203 25.7495V136.258C146.203 138.445 144.518 140.295 142.159 140.295H61.952L54.875 133.231L134.577 23.7311L141.485 21.208L146.203 25.7495Z" fill="#BBC4D9"/>
<path d="M141.822 22.5537C141.822 21.8809 141.317 21.208 140.474 21.208H56.223C55.549 21.208 54.875 21.7126 54.875 22.5537V131.885C54.875 132.558 55.3805 133.231 56.223 133.231H140.306C140.98 133.231 141.654 132.726 141.654 131.885L141.822 22.5537Z" fill="#EEF1FF" stroke="#BBC4D9" stroke-width="2" stroke-miterlimit="10"/>
<path d="M141.821 22.5537C141.821 21.8809 141.316 21.208 140.473 21.208H56.2219C55.548 21.208 54.874 21.7126 54.874 22.5537C55.885 66.118 56.2219 115.401 51.5039 128.185L132.217 127.007C137.103 104.805 140.81 64.9407 141.821 22.5537Z" fill="#EEF1FF" stroke="#BBC4D9" stroke-width="2" stroke-miterlimit="10"/>
<path d="M141.651 21.376C141.651 21.376 141.483 27.9359 139.461 69.8181C139.461 70.1546 139.461 70.3227 139.461 70.6592C136.933 111.7 100.537 120.279 96.1556 120.783C94.1336 120.952 90.258 121.288 83.3494 121.288C74.7558 121.624 61.6125 121.793 41.0552 121.961C40.3812 121.961 39.8757 121.288 40.2127 120.615C54.3669 92.189 54.5354 21.5441 54.5354 21.5441L141.651 21.376Z" fill="white" stroke="#BBC4D9" stroke-width="2" stroke-miterlimit="10"/>
<path d="M139.295 70.4912C136.936 111.533 100.371 120.111 95.9898 120.615C93.9676 120.784 90.0921 121.12 83.1836 121.12C101.382 112.71 111.155 97.5718 110.987 85.7976C119.749 86.4704 134.914 85.7976 139.295 70.4912Z" fill="#EEF1FF" stroke="#BBC4D9" stroke-width="2" stroke-miterlimit="10"/>
<path d="M118.735 13.6385C118.735 13.4703 118.735 13.4703 118.735 13.6385L117.892 12.7975C117.892 12.7975 117.387 12.9657 117.218 13.3021H104.075C104.075 12.9657 104.075 12.7975 104.075 12.4611C104.075 9.76987 101.716 7.41504 99.02 7.41504C96.3241 7.41504 93.965 9.76987 93.965 12.4611C93.965 12.7975 93.965 12.9657 94.1335 13.1339H80.4847C79.8107 13.1339 79.1367 13.6385 79.1367 14.6478V19.021C79.1367 22.3851 81.4958 24.4035 84.6974 24.4035H112.669C116.039 24.4035 118.903 22.3851 118.903 19.021V14.4795C119.072 14.1431 118.903 13.8067 118.735 13.6385Z" fill="#8790A3"/>
<path d="M118.232 13.6389V18.0122C118.232 18.3486 118.232 18.5168 118.232 18.8533C117.726 21.7126 115.368 24.0675 112.334 24.0675H84.1945C81.1615 24.0675 78.8024 21.7126 78.2969 18.8533C78.2969 18.5168 78.2969 18.3486 78.2969 18.0122V13.6389C78.2969 12.9661 78.8024 12.1251 79.645 12.1251H93.4621C93.4621 11.7887 93.4621 11.6205 93.4621 11.4523C93.4621 8.76108 95.8212 6.40625 98.5172 6.40625C101.213 6.40625 103.572 8.76108 103.572 11.4523C103.572 11.7887 103.572 11.9569 103.572 12.1251H117.389C117.726 12.2933 118.232 12.7979 118.232 13.6389Z" fill="#8790A3"/>
<path d="M98.1793 13.8073C99.5274 13.8073 100.538 12.7981 100.538 11.4525C100.538 10.1069 99.5274 9.09766 98.1793 9.09766C96.8313 9.09766 95.8203 10.1069 95.8203 11.4525C95.8203 12.7981 96.9998 13.8073 98.1793 13.8073Z" fill="#EEF1FF"/>
<path d="M75.5983 69.9866C78.2943 69.9866 80.3163 67.8001 80.3163 65.277C80.3163 62.5857 78.1258 60.5674 75.5983 60.5674C72.9022 60.5674 70.8802 62.754 70.8802 65.277C70.7117 67.8001 72.9022 69.9866 75.5983 69.9866Z" fill="#8790A3"/>
<path d="M113.007 69.8177C115.703 69.8177 117.725 67.6311 117.725 65.1081C117.725 62.4169 115.535 60.3984 113.007 60.3984C110.48 60.3984 108.289 62.585 108.289 65.1081C108.289 67.6311 110.311 69.8177 113.007 69.8177Z" fill="#8790A3"/>
<path d="M98.8531 75.0322H89.7539V77.2188H98.8531V75.0322Z" fill="#8790A3"/>
<path d="M189.678 21.8809C193.385 39.3739 192.879 57.8761 187.824 75.0328C186.645 78.565 185.464 82.4336 182.936 85.1249C179.398 89.33 172.995 91.1801 167.772 89.8346C162.38 88.4889 157.999 83.7793 156.988 78.0604C156.145 74.5282 157.325 70.3231 160.358 68.1364C163.559 66.118 168.109 66.6226 170.805 69.1456C173.838 71.6687 175.017 75.5374 174.849 79.2378C174.68 82.9382 173.332 86.6388 171.479 89.8346C165.918 100.263 155.808 108.505 144.181 112.206C135.588 114.897 126.32 114.897 117.727 112.542" stroke="#BBC4D9" stroke-width="2" stroke-miterlimit="10" stroke-dasharray="4 4"/>
<path d="M196.751 16.8344C196.246 18.6847 194.224 19.3574 192.202 18.18C190.011 17.1708 188.495 16.3298 188.832 14.6478C189.338 12.9657 191.359 12.7975 193.718 12.6293C196.583 12.2929 197.088 14.9841 196.751 16.8344Z" fill="#EEF1FF" stroke="#BBC4D9" stroke-width="2" stroke-miterlimit="10"/>
<path d="M180.406 18.5161C181.248 20.0299 183.607 21.0391 185.292 19.5253C187.147 17.8433 188.664 16.6659 187.821 14.9838C186.979 13.47 185.629 13.9746 182.765 14.311C180.406 14.8157 179.395 16.8341 180.406 18.5161Z" fill="#EEF1FF" stroke="#BBC4D9" stroke-width="2" stroke-miterlimit="10"/>
<path d="M187.823 12.2933C189.002 12.1251 190.182 12.7979 190.519 13.8072C190.687 14.1436 190.856 14.6481 190.856 14.9846C191.193 17.3395 190.35 19.3579 189.002 19.526C187.486 19.8625 185.969 18.1804 185.801 15.9938C185.801 15.321 185.801 14.9846 185.801 14.48C185.969 13.3026 186.643 12.4615 187.823 12.2933C187.823 12.2933 187.991 12.2933 187.823 12.2933Z" fill="#EEF1FF"/>
<path d="M187.823 12.2933C189.002 12.1251 190.182 12.7979 190.519 13.8072C190.687 14.1436 190.856 14.6481 190.856 14.9846C191.193 17.3395 190.35 19.3579 189.002 19.526C187.486 19.8625 185.969 18.1804 185.801 15.9938C185.801 15.321 185.801 14.9846 185.801 14.48C185.969 13.3026 186.643 12.4615 187.823 12.2933ZM187.823 12.2933C187.823 12.2933 187.991 12.2933 187.823 12.2933V12.2933Z" stroke="#BBC4D9" stroke-width="2" stroke-miterlimit="10"/>
</svg>
