<svg width="48" height="49" viewBox="0 0 48 49" fill="none" xmlns="http://www.w3.org/2000/svg">
<circle cx="24" cy="24.5" r="24" fill="#EEF1FF"/>
<g clip-path="url(#clip0_505_16321)">
<path d="M22 19.22L18.603 22H15V26H18.603L22 28.78V19.22ZM17.889 28H14C13.7348 28 13.4804 27.8947 13.2929 27.7071C13.1054 27.5196 13 27.2652 13 27V21C13 20.7348 13.1054 20.4805 13.2929 20.2929C13.4804 20.1054 13.7348 20 14 20H17.889L23.183 15.668C23.2563 15.608 23.3451 15.57 23.4391 15.5584C23.5331 15.5469 23.6284 15.5623 23.714 15.6028C23.7996 15.6434 23.872 15.7074 23.9226 15.7875C23.9732 15.8675 24.0001 15.9603 24 16.055V31.945C24.0001 32.0397 23.9732 32.1325 23.9226 32.2126C23.872 32.2926 23.7996 32.3567 23.714 32.3972C23.6284 32.4378 23.5331 32.4532 23.4391 32.4416C23.3451 32.4301 23.2563 32.3921 23.183 32.332L17.89 28H17.889ZM31.406 32.134L29.99 30.718C30.938 29.8745 31.6964 28.8397 32.2152 27.6817C32.734 26.5237 33.0015 25.2689 33 24C33.0012 22.6661 32.7054 21.3487 32.1339 20.1434C31.5624 18.9381 30.7296 17.8753 29.696 17.032L31.116 15.612C32.3345 16.6436 33.3132 17.9285 33.9841 19.3772C34.6549 20.8259 35.0016 22.4035 35 24C35 27.223 33.614 30.122 31.406 32.134ZM27.863 28.591L26.441 27.169C26.9265 26.7957 27.3196 26.3158 27.5899 25.7663C27.8602 25.2167 28.0006 24.6124 28 24C28 22.57 27.25 21.315 26.12 20.608L27.559 19.169C28.3165 19.7262 28.9321 20.4539 29.3562 21.2931C29.7802 22.1324 30.0008 23.0597 30 24C30 25.842 29.17 27.49 27.863 28.591Z" fill="#5C00DD"/>
</g>
<defs>
<clipPath id="clip0_505_16321">
<rect width="24" height="24" fill="white" transform="translate(12 12)"/>
</clipPath>
</defs>
</svg>
