<svg width="185" height="162" viewBox="0 0 185 162" fill="none" xmlns="http://www.w3.org/2000/svg">
<path d="M35.1797 83.2188C36.4652 86.0159 37.488 87.7934 38.3352 88.9007" stroke="#BBC4D9"/>
<path d="M99.0648 159.94C141.179 159.94 175.32 125.89 175.32 83.74C175.32 41.59 141.028 7.54004 99.0648 7.54004C56.951 7.54004 22.8086 41.59 22.8086 83.74C22.8086 125.89 56.951 159.94 99.0648 159.94Z" fill="#F5F8FE" stroke="#BBC4D9" stroke-width="2" stroke-miterlimit="10"/>
<path d="M170.358 33.7902C173.765 33.7902 176.525 31.0368 176.525 27.6402C176.525 24.2436 173.765 21.4902 170.358 21.4902C166.953 21.4902 164.191 24.2436 164.191 27.6402C164.191 31.0368 166.953 33.7902 170.358 33.7902Z" fill="#EEF1FF"/>
<path d="M179.379 9.79063C181.706 9.79063 183.591 7.91023 183.591 5.59063C183.591 3.27103 181.706 1.39062 179.379 1.39062C177.054 1.39062 175.168 3.27103 175.168 5.59063C175.168 7.91023 177.054 9.79063 179.379 9.79063Z" fill="#EEF1FF"/>
<path d="M26.8676 33.6402C29.1935 33.6402 31.079 31.7598 31.079 29.4402C31.079 27.1206 29.1935 25.2402 26.8676 25.2402C24.5417 25.2402 22.6562 27.1206 22.6562 29.4402C22.6562 31.7598 24.5417 33.6402 26.8676 33.6402Z" fill="#EEF1FF"/>
<path d="M9.14926 124.432C13.4688 124.432 16.9704 120.94 16.9704 116.632C16.9704 112.324 13.4688 108.832 9.14926 108.832C4.82977 108.832 1.32812 112.324 1.32812 116.632C1.32812 120.94 4.82977 124.432 9.14926 124.432Z" fill="#EEF1FF"/>
<path d="M180.047 117.772H156.913C155.818 117.772 154.881 117.07 154.568 116.135C152.302 109.432 147.299 107.795 135.185 103.04C134.482 102.728 134.404 101.793 135.107 101.403C138.624 99.6884 137.999 98.2075 137.999 87.9187C137.843 87.7628 137.686 87.529 137.608 87.3731C136.827 86.2039 136.279 84.8009 136.123 83.3978L135.342 83.0081C132.997 83.5538 133.153 81.0595 132.528 76.2269C132.293 74.2004 132.606 73.8106 133.466 73.4989L134.247 72.4856C129.636 62.1968 131.981 55.7275 136.514 53.3891C135.029 50.1154 134.951 48.9463 134.951 48.9463C134.951 48.9463 144.564 50.5831 147.847 49.8815C152.067 49.0241 158.476 50.0374 160.899 55.5715C164.885 57.1304 166.447 59.7026 166.838 62.3527C167.386 66.7177 164.963 71.4722 164.494 73.343C164.572 73.4209 164.572 73.4989 164.65 73.5769C165.276 73.8886 165.51 74.4343 165.276 76.1489C164.728 80.7478 164.806 83.6317 162.462 82.9303L160.351 86.5936C160.273 87.0613 160.195 87.2171 160.195 87.451C160.117 88.1525 160.117 89.4776 160.117 97.1162C160.117 98.0515 160.351 98.9089 160.821 99.6104C161.29 100.468 162.07 101.091 163.009 101.481H163.087C168.558 103.741 172.465 105.222 175.357 106.392C181.766 108.964 182.861 109.665 183.407 113.952C183.564 116.057 182.079 117.772 180.047 117.772Z" fill="white" stroke="#BBC4D9" stroke-width="2" stroke-miterlimit="10"/>
<path d="M164.335 73.2639C164.569 72.0948 164.022 70.6917 163.553 69.6785C163.474 69.5226 163.396 69.3668 163.318 69.1329C161.521 65.4695 157.378 63.9105 153.471 63.7547C143.467 63.2091 142.529 65.1578 139.403 62.2737C140.341 63.7547 140.497 66.015 138.934 68.8991C137.918 70.9256 135.886 71.783 134.088 72.4065C129.555 62.1179 131.822 55.6484 136.355 53.31C134.87 50.0364 134.791 48.8672 134.791 48.8672C134.791 48.8672 144.405 50.5041 147.687 49.8026C151.908 48.9452 158.317 49.9584 160.74 55.4925C164.726 57.0515 166.288 59.6237 166.679 62.2737C167.305 66.6387 164.804 71.3933 164.335 73.2639Z" fill="#BBC4D9"/>
<path d="M137.898 87.7697C138.367 88.6271 138.62 88.4636 139.323 89.0871L146.592 94.1535C148.311 95.5565 150.734 95.6345 152.454 94.2315L159.253 88.1517C159.487 87.9179 159.817 87.2835 160.051 87.0498" stroke="#BBC4D9" stroke-width="2" stroke-miterlimit="10"/>
<path d="M60.4649 100.389C56.7135 100.311 56.3226 99.6092 56.3226 99.6092V93.3735C60.3087 90.0998 63.6694 86.2805 64.6071 81.2921C67.1083 80.7464 68.6713 78.486 68.4368 75.9918C68.3587 74.9006 67.6553 73.8874 67.5771 72.7181C67.5771 72.1726 67.5771 71.6268 67.5771 71.0813C67.5771 70.6916 67.5772 70.3797 67.499 69.99C67.499 69.6003 67.4208 69.2106 67.4208 68.8209C67.1863 66.9501 66.7175 65.0016 65.4669 62.7411C62.3407 56.8953 56.1663 52.998 49.2105 52.998C47.8036 52.998 46.3968 53.1539 45.0681 53.4657C42.5672 54.0113 40.3007 55.1026 38.2686 56.6615C37.8778 56.9732 37.487 57.285 37.0963 57.5967C37.0181 57.6747 36.9399 57.7528 36.7836 57.8306C34.5952 59.8573 32.8759 62.4294 31.938 65.3133C31 68.1974 30.7655 71.1593 31.1564 74.1212C31.1564 74.199 31.1564 74.2771 31.1564 74.3551C31.1564 74.4329 31.1564 74.5109 31.1564 74.5888C31.2345 75.1345 31.3909 75.0564 31 75.5242C30.922 75.68 30.7655 75.836 30.6875 76.0697C30.2185 76.9271 29.8277 78.0963 30.3748 79.4993C31.3127 82.1495 33.1884 81.7598 34.9079 83.2407C34.8297 83.3186 34.6734 83.3966 34.5952 83.3966H34.5171L32.5632 84.0201C20.8398 87.6836 19.5111 100.077 31.5472 102.337C30.6875 102.415 29.9058 102.883 29.3588 103.273C25.5291 106.234 23.1062 110.755 22.481 115.198C22.2465 116.523 23.3407 117.77 24.7476 117.77H43.3487C43.7394 117.77 44.1304 117.458 44.2866 117.069C46.0061 110.833 49.9138 108.651 58.0421 105.377L62.7314 103.506C63.5131 103.195 64.3728 102.883 65.3106 102.493C66.1703 102.181 66.0921 100.934 65.1543 100.7C64.2164 100.467 63.2786 100.389 62.3407 100.311C61.5592 100.389 60.9339 100.389 60.4649 100.389ZM36.6273 92.4381C36.6273 91.6587 37.1744 90.8013 38.3468 89.866C38.8157 90.4897 39.441 91.191 40.1443 91.8146C40.6915 92.2823 41.2385 92.75 41.8637 93.2177C42.2545 93.4515 42.6454 93.7632 43.0361 94.0751C43.1142 94.1529 43.1924 94.2309 43.2706 94.2309C43.3487 94.3089 43.5051 94.3868 43.5832 94.4648V98.2841C43.5051 98.2061 43.4269 98.1282 43.3487 98.1282C42.9579 97.8164 42.6454 97.5047 42.3327 97.2708C41.7857 96.881 41.2385 96.5693 40.6915 96.2574C40.457 96.1016 40.3007 96.0236 40.1443 95.8677C38.3468 94.6986 36.7055 93.6074 36.6273 92.4381Z" fill="white" stroke="#BBC4D9" stroke-width="2" stroke-miterlimit="10"/>
<path d="M43.5195 94.379C46.802 96.0158 50.5396 96.7253 56.4012 93.2959" stroke="#BBC4D9" stroke-width="2" stroke-miterlimit="10"/>
<path d="M67.4219 69.9902C64.0613 71.1593 60.4661 71.627 56.8709 71.3153C51.2436 70.8476 45.7727 68.5871 41.5523 64.8458C40.1454 68.8989 36.6285 71.9388 32.6425 73.7315C32.0954 73.9653 31.5483 74.1992 31.0012 74.355C31.0012 74.2772 31.0012 74.1992 31.0012 74.1992C30.6104 71.2373 30.8449 68.2754 31.7828 65.3915C32.7206 62.5074 34.44 59.9352 36.6285 57.9087C36.7067 57.8307 36.7847 57.7529 36.9412 57.6749C37.3319 57.363 37.7227 57.0513 38.1134 56.7395C40.1454 55.2585 42.4901 54.1673 44.913 53.5437C46.3198 53.232 47.6484 53.0762 49.0553 53.0762C56.0112 53.0762 62.1855 56.9733 65.3117 62.8193C66.4842 65.0796 67.0312 67.0283 67.2657 68.8209C67.4219 69.2108 67.4219 69.6005 67.4219 69.9902Z" fill="#BBC4D9"/>
<path d="M45.9258 109.82C44.4408 111.691 41.6273 111.768 39.2826 111.691C41.7836 109.274 40.3767 101.402 31.6233 102.337H31.5451C19.5091 100.077 20.8377 87.6835 32.4831 84.02L34.4368 83.3965C34.5933 83.4745 34.6713 83.5523 34.7495 83.7083C35.6875 86.1245 36.9379 88.1512 38.2665 89.788C33.499 93.7631 40.1424 95.0102 43.3468 98.0501C46.1603 99.6869 48.505 106.546 45.9258 109.82Z" fill="#BBC4D9"/>
<path d="M32.9883 81.9951C38.6273 84.2096 36.1304 87.1565 38.4092 89.8371" stroke="#BBC4D9" stroke-width="1.8"/>
<path d="M150.108 121.356C150.498 124.24 148.232 126.89 145.262 126.89H53.663C50.6931 126.89 48.4266 124.24 48.8173 121.356C49.6771 115.354 51.0058 114.107 59.9155 110.522L62.1038 109.664C66.2462 108.028 71.639 106.001 78.9074 102.961C80.5488 102.26 81.8773 101.013 82.5807 99.3758C82.9715 98.5184 83.206 97.505 83.206 96.4917V82.8515C82.9715 82.5396 82.737 82.3058 82.5807 81.9941C81.4085 80.2793 80.6268 78.2526 80.3923 76.0701L79.2201 75.5246C75.703 76.382 76.0157 72.6407 75.0777 65.4696C74.687 62.5077 75.1559 61.8842 76.4846 61.4166L77.5788 59.9355C70.8573 44.7363 74.218 35.2271 80.8613 31.8755C78.8293 27.0428 78.673 25.3281 78.673 25.3281C78.673 25.3281 92.8192 27.6665 97.6649 26.7311C103.839 25.484 113.374 26.9649 116.891 35.1491C122.753 37.4874 125.02 41.1509 125.567 45.204C126.426 51.5955 122.753 58.6106 122.05 61.3386C122.128 61.4945 122.128 61.5725 122.206 61.6503C123.144 62.118 123.456 62.8976 123.144 65.4696C122.284 72.2508 122.519 76.46 119.002 75.5246L115.875 80.9807C115.719 81.6042 115.719 81.8381 115.641 82.3058C115.485 83.319 115.563 85.3457 115.563 96.4917C115.563 97.8168 115.953 99.1419 116.657 100.155C117.438 101.324 118.533 102.338 119.861 102.883C119.939 102.883 119.939 102.883 120.018 102.961C128.068 106.313 133.851 108.495 138.072 110.132C147.685 113.873 149.17 115.043 150.108 121.356Z" fill="white" stroke="#BBC4D9" stroke-width="2" stroke-miterlimit="10"/>
<path d="M122.131 61.3386C122.444 59.6238 121.662 57.5193 121.037 56.0384C120.959 55.8045 120.802 55.5707 120.724 55.259C117.989 49.8027 111.971 47.6204 106.187 47.3085C91.4158 46.5291 90.0871 49.335 85.4759 45.126C86.8827 47.3085 87.0389 50.6601 84.8505 54.8691C83.2875 57.831 80.3176 59.1561 77.7384 60.0135C71.017 44.8143 74.3777 35.3051 81.0209 31.9533C78.8326 27.0428 78.6762 25.3281 78.6762 25.3281C78.6762 25.3281 92.8225 27.6665 97.6682 26.7311C103.843 25.484 113.378 26.9649 116.895 35.1491C122.756 37.4874 125.023 41.1509 125.57 45.204C126.508 51.5175 122.834 58.5326 122.131 61.3386Z" fill="#BBC4D9"/>
<path d="M83.2854 82.8507C83.0509 82.539 82.8164 82.3051 82.6602 81.9933V81.2139C83.3636 82.461 84.3014 83.6301 85.4738 84.5655L96.1811 92.0482C98.6822 94.1527 102.277 94.2307 104.857 92.2041L114.861 83.2404C115.173 82.9287 115.564 82.6168 115.877 82.3051" stroke="#BBC4D9" stroke-width="2" stroke-miterlimit="10"/>
<path d="M126.131 141.033C125.646 143.089 124.919 145.266 124.07 147.08C121.766 151.556 118.128 155.063 113.641 157.361C109.032 159.659 103.575 160.626 98.1179 159.417C85.2633 156.756 77.017 144.178 79.6849 131.358C82.3529 118.538 94.8437 110.193 107.698 112.975C112.307 113.942 116.309 116.24 119.704 119.385C125.404 125.069 127.829 133.293 126.131 141.033Z" fill="#BBC4D9" stroke="#BBC4D9" stroke-width="2" stroke-miterlimit="10"/>
<path d="M110.49 132.639H106.537V128.697C106.537 126.838 105.072 125.141 102.971 125.141C101.107 125.141 99.4054 126.602 99.4054 128.697V132.639H95.4524C93.5887 132.639 91.8867 134.1 91.8867 136.195C91.8867 137.159 92.2311 138.067 92.9033 138.737C93.5753 139.408 94.4857 139.751 95.4524 139.751H99.4054V143.694C99.4054 145.552 100.871 147.25 102.971 147.25C104.835 147.25 106.537 145.789 106.537 143.694V139.751H110.49C112.353 139.751 114.055 138.29 114.055 136.195C114.055 134.1 112.353 132.639 110.49 132.639Z" fill="white" stroke="#BBC4D9" stroke-width="2"/>
</svg>
