<svg width="152" height="152" viewBox="0 0 152 152" fill="none" xmlns="http://www.w3.org/2000/svg">
<circle cx="76" cy="76" r="76" fill="#C6FFD6"/>
<path d="M106.624 83.4008C106.622 82.2896 106.309 81.2012 105.72 80.2586C105.132 79.3159 104.292 78.5565 103.295 78.0662C104.513 77.4719 105.493 76.481 106.074 75.2563C106.655 74.0316 106.803 72.6457 106.493 71.3261C106.183 70.0064 105.433 68.8313 104.368 67.9937C103.302 67.156 101.983 66.7055 100.627 66.716H99.6436L85.0586 67.0376C85.0586 67.0376 88.1421 54.0605 86.9503 47.0801C85.7585 40.0998 76.4135 37.0352 76.2433 44.8101C76.073 52.585 75.1082 55.1955 69.1116 62.0057C66.3954 64.9962 64.034 68.2907 62.0744 71.8236C61.5743 72.7598 61.3205 73.8079 61.3367 74.8692V104.399C61.3367 104.781 61.412 105.16 61.5584 105.514C61.7048 105.867 61.9194 106.188 62.1899 106.459C62.4604 106.729 62.7816 106.944 63.135 107.09C63.4885 107.237 63.8673 107.312 64.2499 107.312H100.571C101.344 107.358 102.119 107.246 102.847 106.982C103.575 106.717 104.242 106.307 104.805 105.775C105.369 105.243 105.818 104.602 106.124 103.89C106.43 103.178 106.588 102.412 106.586 101.637C106.359 98.9316 103.049 97.8534 103.049 97.8534C104.143 97.7474 105.161 97.2445 105.911 96.4395C106.66 95.6344 107.089 94.583 107.116 93.4836C107.202 92.9176 107.167 92.3398 107.013 91.7884C106.859 91.237 106.59 90.7245 106.223 90.2847C105.857 89.8449 105.401 89.4878 104.887 89.2371C104.372 88.9863 103.81 88.8476 103.238 88.83C104.259 88.3389 105.119 87.5678 105.718 86.6066C106.318 85.6454 106.632 84.5336 106.624 83.4008Z" fill="#23DD57"/>
<path d="M53.1663 72.7883H40.4162C38.3267 72.7883 36.6328 74.4822 36.6328 76.5717V109.922C36.6328 112.012 38.3267 113.706 40.4162 113.706H53.1663C55.2558 113.706 56.9497 112.012 56.9497 109.922V76.5717C56.9497 74.4822 55.2558 72.7883 53.1663 72.7883Z" fill="#23DD57"/>
</svg>
